<?xml version="1.0" encoding="UTF-8" standalone="no"?>
<!-- Created with Inkscape (http://www.inkscape.org/) -->

<svg
   xmlns:dc="http://purl.org/dc/elements/1.1/"
   xmlns:cc="http://creativecommons.org/ns#"
   xmlns:rdf="http://www.w3.org/1999/02/22-rdf-syntax-ns#"
   xmlns:svg="http://www.w3.org/2000/svg"
   xmlns="http://www.w3.org/2000/svg"
   xmlns:sodipodi="http://sodipodi.sourceforge.net/DTD/sodipodi-0.dtd"
   xmlns:inkscape="http://www.inkscape.org/namespaces/inkscape"
   width="210mm"
   height="133mm"
   viewBox="0 0 210 133"
   version="1.1"
   id="svg8"
   inkscape:version="0.92.3 (2405546, 2018-03-11)"
   sodipodi:docname="LogoSites.svg">
  <defs
     id="defs2" />
  <sodipodi:namedview
     id="base"
     pagecolor="#ffffff"
     bordercolor="#666666"
     borderopacity="1.0"
     inkscape:pageopacity="0.0"
     inkscape:pageshadow="2"
     inkscape:zoom="1.4"
     inkscape:cx="567.73261"
     inkscape:cy="354.78131"
     inkscape:document-units="mm"
     inkscape:current-layer="layer1"
     showgrid="false"
     inkscape:window-width="3840"
     inkscape:window-height="2066"
     inkscape:window-x="-11"
     inkscape:window-y="-11"
     inkscape:window-maximized="1" />
  <metadata
     id="metadata5">
    <rdf:RDF>
      <cc:Work
         rdf:about="">
        <dc:format>image/svg+xml</dc:format>
        <dc:type
           rdf:resource="http://purl.org/dc/dcmitype/StillImage" />
        <dc:title></dc:title>
      </cc:Work>
    </rdf:RDF>
  </metadata>
  <g
     inkscape:label="Layer 1"
     inkscape:groupmode="layer"
     id="layer1"
     transform="translate(0,-164)">
    <g
       style="fill:#000000"
       id="g39"
       transform="matrix(8.2339609,0,0,8.2339609,36.658125,170.52141)">
      <path
         style="fill:#000000"
         id="path31"
         d="M 0,2.4 H 2 V 4.1 H 0 Z m 0,2.5 h 2 v 6.7 H 0 Z"
         class="st0"
         inkscape:connector-curvature="0" />
      <path
         style="fill:#000000"
         id="path33"
         d="M 3.8,10 8.9,4.1 h -5 V 2.3 h 7.6 v 1.5 l -5.1,6 h 5.1 v 1.8 H 3.8 Z"
         class="st0"
         inkscape:connector-curvature="0" />
      <g
         style="fill:#000000"
         id="g37">
        <path
           style="fill:#000000"
           id="path35"
           d="M 13.3,3.9 14,3.2 c 0.3,0.4 0.6,0.6 1.1,0.6 0.4,0 0.7,-0.2 0.7,-0.6 0,-0.4 -0.3,-0.6 -0.9,-0.6 H 14.5 L 14.2,2 15.3,0.9 H 13.5 V 0 h 3.1 v 0.8 l -1.2,1.1 c 0.6,0.1 1.2,0.4 1.2,1.3 0,0.9 -0.6,1.5 -1.7,1.5 -0.7,0 -1.3,-0.3 -1.6,-0.8 z"
           class="st0"
           inkscape:connector-curvature="0" />
      </g>
    </g>
    <text
       xml:space="preserve"
       style="font-style:normal;font-variant:normal;font-weight:normal;font-stretch:normal;font-size:10.58333302px;line-height:1.25;font-family:sans-serif;-inkscape-font-specification:'sans-serif, Normal';font-variant-ligatures:normal;font-variant-caps:normal;font-variant-numeric:normal;font-feature-settings:normal;text-align:start;letter-spacing:0px;word-spacing:0px;writing-mode:lr-tb;text-anchor:start;fill:#000000;fill-opacity:1;stroke:none;stroke-width:0.26458332"
       x="32.513474"
       y="288.27716"
       id="text3731"><tspan
         sodipodi:role="line"
         id="tspan3733"
         x="32.513474"
         y="288.27716">IZZZIO blockchain platform</tspan></text>
  </g>
  <style
     id="style29"
     type="text/css">
	.st0{fill:#FFFFFF;}
</style>
</svg>
