<?xml version="1.0" encoding="utf-8"?>
<!-- Generator: Adobe Illustrator 22.1.0, SVG Export Plug-In . SVG Version: 6.00 Build 0)  -->
<svg version="1.1" id="Layer_1" xmlns="http://www.w3.org/2000/svg" xmlns:xlink="http://www.w3.org/1999/xlink" x="0px" y="0px"
	 viewBox="0 0 247.2 46" style="enable-background:new 0 0 247.2 46;" xml:space="preserve">
<style type="text/css">
	.st0{fill:#3693D4;}
</style>
<g>
	<path d="M60.8,29.7c0.8,0.6,1.7,1,2.9,1.3c1.2,0.3,2.4,0.5,3.7,0.4c1.5,0,2.7-0.2,3.8-0.7c1.1-0.5,1.8-1.1,2.3-1.8
		c0.5-0.8,0.8-1.5,0.8-2.5c0-1.1-0.3-1.9-0.9-2.5c-0.6-0.6-1.3-1.1-2-1.4c-0.6-0.2-1.3-0.4-2-0.6c-0.3-0.1-0.6-0.1-0.9-0.2
		c-1.1-0.2-1.8-0.4-2.3-0.6c-0.5-0.3-0.7-0.6-0.7-1c0-0.5,0.2-0.8,0.6-1c0.4-0.3,1.1-0.4,1.9-0.4c1.4,0,2.8,0.4,4.3,1.2l1.4-3.3
		c-0.8-0.4-1.6-0.8-2.6-1c-1-0.3-1.9-0.4-3-0.4c-1.5,0-2.7,0.2-3.8,0.7c-1.1,0.5-1.8,1.1-2.3,1.8c-0.5,0.7-0.8,1.5-0.8,2.5
		c0,1.1,0.3,1.9,0.8,2.6c0.6,0.6,1.3,1.1,2,1.4c0.8,0.3,1.8,0.6,3,0.8c1.1,0.2,1.8,0.5,2.3,0.7c0.5,0.2,0.7,0.5,0.7,1
		c0,0.9-0.9,1.3-2.5,1.3c-0.9,0-1.8-0.1-2.7-0.4c-1-0.3-1.7-0.6-2.4-1.1L60.8,29.7z M178.8,29.7c0.8,0.6,1.7,1,2.9,1.3
		c1.2,0.3,2.4,0.5,3.7,0.4c1.5,0,2.7-0.2,3.8-0.7c1.1-0.5,1.8-1.1,2.3-1.8c0.5-0.8,0.8-1.5,0.8-2.5c0-1.1-0.3-1.9-0.9-2.5
		c-0.6-0.6-1.3-1.1-2-1.4c-0.6-0.2-1.2-0.4-2-0.6c-0.3-0.1-0.6-0.1-0.9-0.2c-1.1-0.2-1.8-0.4-2.3-0.6c-0.5-0.3-0.7-0.6-0.7-1
		c0-0.5,0.2-0.8,0.6-1c0.4-0.3,1.1-0.4,1.9-0.4c1.4,0,2.8,0.4,4.3,1.2l1.4-3.3c-0.8-0.4-1.6-0.8-2.6-1c-1-0.3-1.9-0.4-3-0.4
		c-1.5,0-2.7,0.2-3.8,0.7c-1.1,0.5-1.8,1.1-2.3,1.8c-0.5,0.7-0.8,1.5-0.8,2.5c0,1.1,0.3,1.9,0.8,2.6c0.6,0.6,1.3,1.1,2,1.4
		c0.8,0.3,1.8,0.6,3,0.8c1.1,0.2,1.8,0.5,2.3,0.7c0.5,0.2,0.7,0.5,0.7,1c0,0.9-0.9,1.3-2.5,1.3c-0.9,0-1.8-0.1-2.7-0.4
		c-1-0.3-1.7-0.6-2.4-1.1L178.8,29.7z M86.2,25.6v5.5h-4.3v-5.6L76,15.8h4.6l3.6,6.1l3.6-6.1h4.2L86.2,25.6z M110.1,31V15.8h-4.2
		v8.1L99,15.8h-3.5V31h4.2v-8.1l6.8,8.1H110.1z M127.7,27.8v3.3h-12.3V15.8h12.1v3.3h-7.8v2.5h6.8v3.2h-6.8v2.8L127.7,27.8
		L127.7,27.8z M136.7,27h2.4l2.8,4.1h4.6l-3.3-4.8c1-0.5,1.8-1.2,2.3-2c0.5-0.9,0.8-1.9,0.8-2.9c0-1.2-0.2-2.2-0.8-3
		c-0.6-0.9-1.4-1.5-2.4-2c-1.1-0.5-2.3-0.7-3.6-0.7h-7v15.4h4.3V27z M139,19.2c1,0,1.6,0.2,2.1,0.6c0.4,0.4,0.7,1,0.7,1.7
		s-0.2,1.3-0.7,1.7c-0.5,0.4-1.2,0.6-2.1,0.6h-2.5v-4.5H139z M161.2,23.1h3.7v6.4c-0.9,0.6-1.9,1.1-3.1,1.5
		c-1.2,0.3-2.3,0.5-3.4,0.5c-1.6,0-3.1-0.3-4.3-1c-1.3-0.7-2.3-1.7-3.1-2.8c-0.7-1.2-1.1-2.5-1.1-4.1c0-1.6,0.4-2.9,1.1-4.1
		c0.7-1.2,1.8-2.2,3.1-2.8c1.3-0.7,2.8-1,4.4-1c1.5,0,2.8,0.2,3.8,0.7c1.2,0.5,2.1,1.2,2.9,2.1l-2.8,2.4c-1.1-1.2-2.3-1.7-3.7-1.7
		c-1.3,0-2.4,0.4-3.2,1.2c-0.8,0.8-1.2,1.9-1.2,3.1c0,0.9,0.2,1.6,0.6,2.3c0.4,0.7,0.9,1.2,1.6,1.6c0.7,0.4,1.4,0.6,2.3,0.6
		c0.8,0,1.6-0.2,2.4-0.5V23.1z M174.2,15.8h-4.3V31h4.3V15.8z"/>
	<path class="st0" d="M195.6,30.6c-0.5-0.5-0.7-1.1-0.7-1.8s0.2-1.4,0.7-1.8c0.5-0.4,1.1-0.7,1.8-0.7c0.7,0,1.3,0.2,1.8,0.7
		c0.5,0.4,0.7,1.1,0.7,1.8s-0.2,1.4-0.7,1.8c-0.5,0.4-1.1,0.7-1.8,0.7C196.8,31.3,196.1,31.1,195.6,30.6z"/>
	<path class="st0" d="M203.3,15.3h4.4v12.2h7.4v3.5h-11.7V15.3z"/>
	<path class="st0" d="M227.6,20.1c1.1,0.9,1.5,2.4,1.5,4.2v6.8h-3.9v-1.6c-0.6,1.2-1.8,1.8-3.5,1.8c-0.9,0-1.8-0.1-2.4-0.5
		c-0.6-0.4-1.2-0.8-1.5-1.4c-0.4-0.6-0.5-1.2-0.5-1.9c0-1.1,0.4-2.1,1.3-2.7c0.8-0.6,2.2-0.9,4-0.9h2.4c-0.1-1.3-0.9-1.9-2.5-1.9
		c-0.6,0-1.1,0.1-1.8,0.3c-0.6,0.2-1.1,0.4-1.5,0.8l-1.4-2.9c0.6-0.4,1.5-0.8,2.4-1.1c1-0.2,1.9-0.4,2.9-0.4
		C225.1,18.7,226.6,19.2,227.6,20.1z M224.2,28.2c0.4-0.2,0.6-0.6,0.8-1.1v-1.1h-1.8c-1.2,0-1.8,0.4-1.8,1.2c0,0.4,0.1,0.6,0.4,0.9
		c0.3,0.2,0.6,0.4,1.1,0.4S223.8,28.5,224.2,28.2z"/>
	<path class="st0" d="M243.5,19.5c0.9,0.5,1.6,1.2,2.1,2.2c0.5,0.9,0.8,2.1,0.8,3.3c0,1.3-0.3,2.4-0.8,3.4c-0.5,0.9-1.3,1.7-2.1,2.2
		c-0.9,0.5-1.9,0.8-2.9,0.8c-1.5,0-2.7-0.5-3.5-1.4v1.2h-4V14.4h4.2V20c0.8-0.9,1.9-1.3,3.3-1.3C241.7,18.7,242.7,19,243.5,19.5z
		 M241.5,27.1c0.5-0.5,0.7-1.2,0.7-2.1s-0.2-1.6-0.7-2.1c-0.5-0.5-1.1-0.8-1.8-0.8s-1.3,0.3-1.8,0.8c-0.5,0.5-0.7,1.2-0.7,2.1
		s0.2,1.6,0.7,2.1c0.5,0.5,1.1,0.8,1.8,0.8S241,27.6,241.5,27.1z"/>
	<path class="st0" d="M4.8,16.3c2.7,0,4.9-2.2,4.9-4.9c0-2.7-2.2-4.9-4.9-4.9c-2.7,0-4.9,2.2-4.9,4.9C-0.2,14.2,2,16.3,4.8,16.3z"/>
	<path class="st0" d="M39.2,16.3c2.7,0,4.9-2.2,4.9-4.9c0-2.7-2.2-4.9-4.9-4.9c-2.7,0-4.9,2.2-4.9,4.9
		C34.3,14.2,36.5,16.3,39.2,16.3z"/>
	<path class="st0" d="M22.1,46c2.7,0,4.9-2.2,4.9-4.9c0-2.7-2.2-4.9-4.9-4.9c-2.7,0-4.9,2.2-4.9,4.9C17.2,43.8,19.4,46,22.1,46z"/>
	<path class="st0" d="M10.4,6.9c3.2-2.5,7.2-4.1,11.6-4.1s8.5,1.6,11.6,4.1c0.6-0.8,1.4-1.4,2.2-1.9C32,2,27.2,0,22,0
		C16.7,0,11.9,2,8.2,5.1C9,5.6,9.8,6.3,10.4,6.9z M3.5,21.3c0-1,0.1-1.9,0.2-2.8c-1-0.1-1.9-0.5-2.7-1c-0.2,1.3-0.4,2.4-0.4,3.8
		c0,9.2,5.9,17,14.2,20c0-0.1,0-0.1,0-0.2c0-1,0.2-1.9,0.5-2.6C8.4,35.8,3.5,29.2,3.5,21.3z M31.9,13.5L22,19.2l-9.9-5.7
		c-0.3,1.2-0.9,2.3-1.8,3.1l9.9,5.7v11.4c0.6-0.2,1.2-0.3,1.8-0.3c0.6,0,1.2,0.1,1.8,0.2V22.2l9.9-5.6
		C32.7,15.8,32.1,14.7,31.9,13.5z M43.1,17.5c-0.8,0.5-1.7,0.9-2.7,1c0.1,0.9,0.2,1.9,0.2,2.8c0,7.8-4.9,14.5-11.8,17.2
		c0.3,0.8,0.5,1.8,0.5,2.6v0.1c8.3-2.9,14.2-10.8,14.2-20C43.4,20,43.3,18.7,43.1,17.5z"/>
</g>
</svg>
